<?xml version="1.0" encoding="utf-8"?>
<!-- Generator: Adobe Illustrator 24.3.0, SVG Export Plug-In . SVG Version: 6.00 Build 0)  -->
<svg version="1.1" xmlns="http://www.w3.org/2000/svg" xmlns:xlink="http://www.w3.org/1999/xlink" x="0px" y="0px"
	 viewBox="0 0 288 560" style="enable-background:new 0 0 288 560;" xml:space="preserve">
<style type="text/css">
	.st0{display:none;}
	.st1{fill:url(#SVGID_1_);}
	.st2{fill:url(#SVGID_2_);}
	.st3{fill:url(#SVGID_3_);}
	.st4{opacity:0.76;fill:#44035B;}
	.st5{font-family:'BerlinSansFBDemi-Bold';}
	.st6{font-size:14px;}
	.st7{fill:url(#SVGID_4_);}
	.st8{fill:url(#SVGID_5_);}
</style>
<g id="Layer_1" class="st0">
	
		<image style="display:inline;overflow:visible;" width="608" height="573" xlink:href="B3CF325.jpg"  transform="matrix(0.5724 0 0 0.5986 -29 88)">
	</image>
</g>
<g id="Layer_2">
	<linearGradient id="SVGID_1_" gradientUnits="userSpaceOnUse" x1="73.6704" y1="229.9731" x2="103.3677" y2="178.5358">
		<stop  offset="0" style="stop-color:#8C0BFC;stop-opacity:0.96"/>
		<stop  offset="2.577019e-02" style="stop-color:#8E0CF9;stop-opacity:0.9534"/>
		<stop  offset="0.4803" style="stop-color:#AF15C4;stop-opacity:0.8369"/>
		<stop  offset="0.7023" style="stop-color:#BC18B0;stop-opacity:0.78"/>
		<stop  offset="0.8155" style="stop-color:#BD1AB1;stop-opacity:0.5215"/>
		<stop  offset="0.8562" style="stop-color:#BF21B3;stop-opacity:0.4284"/>
		<stop  offset="0.8853" style="stop-color:#C22CB7;stop-opacity:0.362"/>
		<stop  offset="0.9088" style="stop-color:#C73DBD;stop-opacity:0.3084"/>
		<stop  offset="0.9289" style="stop-color:#CD53C4;stop-opacity:0.2624"/>
		<stop  offset="0.9468" style="stop-color:#D56FCE;stop-opacity:0.2216"/>
		<stop  offset="0.9629" style="stop-color:#DF8FD9;stop-opacity:0.1848"/>
		<stop  offset="0.9777" style="stop-color:#E9B5E6;stop-opacity:0.1509"/>
		<stop  offset="0.9909" style="stop-color:#F5DEF4;stop-opacity:0.1208"/>
		<stop  offset="1" style="stop-color:#FFFFFF;stop-opacity:0.1"/>
	</linearGradient>
	<path class="st1" d="M110.6,185.5c-0.5-2.1-2-4-3.9-5c-3.2-1.8-7.2-1.6-10.8-0.7c-9.9,2.7-19.3,7.5-25.8,15.6
		c-4.1,5.1-6.7,11.7-5.9,18.2c0.6,4.6,2.8,8.9,5.8,12.4c3.1,3.6,7.1,6.6,11.6,8c4.2,1.3,8.8,1.3,13-0.1c0.3-0.1,0.6-0.2,0.9-0.3
		c-5,0.1-10.1-1.6-13.3-5.5c-2.1-2.6-3.2-6-3.6-9.3c-0.4-3.3-0.3-6.8,0.7-9.9c0.6-1.9,1.4-3.6,2.5-5.2c4.3-5.8,11.9-7.9,19-9.2
		c3.5-0.6,7.5-1.5,9.2-4.6C110.9,188.5,110.9,187,110.6,185.5z"/>
	<linearGradient id="SVGID_2_" gradientUnits="userSpaceOnUse" x1="78.2103" y1="209.7144" x2="243.619" y2="209.7144">
		<stop  offset="1.385225e-07" style="stop-color:#4A038D"/>
		<stop  offset="0.5235" style="stop-color:#880BFB"/>
		<stop  offset="0.7026" style="stop-color:#890DFB;stop-opacity:0.7368"/>
		<stop  offset="0.7672" style="stop-color:#8C14FB;stop-opacity:0.642"/>
		<stop  offset="0.8132" style="stop-color:#921FFB;stop-opacity:0.5744"/>
		<stop  offset="0.8504" style="stop-color:#9A30FC;stop-opacity:0.5198"/>
		<stop  offset="0.8823" style="stop-color:#A546FC;stop-opacity:0.4729"/>
		<stop  offset="0.9105" style="stop-color:#B262FC;stop-opacity:0.4315"/>
		<stop  offset="0.936" style="stop-color:#C282FD;stop-opacity:0.394"/>
		<stop  offset="0.9595" style="stop-color:#D4A8FE;stop-opacity:0.3595"/>
		<stop  offset="0.9804" style="stop-color:#E9D1FE;stop-opacity:0.3288"/>
		<stop  offset="1" style="stop-color:#FFFFFF;stop-opacity:0.3"/>
	</linearGradient>
	<path class="st2" d="M95.3,233.6c3,0.1,6.1-0.3,9-0.8c34.2-5.9,65.6-22.5,99.4-30.2c5.4-1.2,11-2.2,16.4-1.2
		c0.5,0.1,1.1,0.2,1.6,0.4c7.6,2,14.1,8.3,16.2,15.9c1.2,4.1,1.1,8.7-0.9,12.4c5.7-6.4,8.1-15.7,6-24s-8.5-15.4-16.6-18.4
		c-6.9-2.5-14.5-2-21.7-0.7c-9.8,1.7-19.3,4.9-28.8,8c-17.9,5.9-35.8,11.9-53.7,17.8c-8.7,2.9-17.4,5.7-26.4,7
		c-3.7,0.5-7.6,0.7-11-0.8c-1.5-0.7-2.9-1.8-3.8-3.2c-0.7-1.1-1.1-4.1-1.9-4.5c-1.8,5.6,0,14,4.2,18.1
		C86.4,232.4,90.8,233.5,95.3,233.6z"/>
	<linearGradient id="SVGID_3_" gradientUnits="userSpaceOnUse" x1="251.7885" y1="197.1767" x2="129.0515" y2="319.9137">
		<stop  offset="0" style="stop-color:#4A038D"/>
		<stop  offset="9.087806e-02" style="stop-color:#520698"/>
		<stop  offset="0.2487" style="stop-color:#690DB4"/>
		<stop  offset="0.4533" style="stop-color:#8D19E2"/>
		<stop  offset="0.519" style="stop-color:#9A1DF2"/>
		<stop  offset="0.5515" style="stop-color:#9F22EC"/>
		<stop  offset="0.674" style="stop-color:#AF30DC"/>
		<stop  offset="0.8125" style="stop-color:#B838D3"/>
		<stop  offset="1" style="stop-color:#BB3BD0"/>
	</linearGradient>
	<path class="st3" d="M220.2,201.2c4.2,3.2,8.8,7.3,8.4,12.5c-0.2,3.2-2.5,6.1-5.3,7.8c-2.8,1.7-6,2.4-9.2,2.9
		c-12.1,1.9-24.4,1.1-36.6,1.4c-17,0.4-41.2,3.2-47.1,22.4c-1.9,6.1-1.9,12.7-1.9,19.1c0,20.2-0.1,40.4-0.1,60.6
		c0,9.8,0.3,20.6,6.6,28.1c4,4.8,10.3,7.7,16.6,7.6s12.5-3.2,16.3-8.2c5.7-7.4,5.9-17.4,5.8-26.7c-0.1-20.2-0.2-40.3-0.3-60.5
		c0-4.3-0.8-9.7-4.9-10.9c-3-0.9-6.3,1.2-7.8,4c-1.4,2.8-1.5,6.1-1.5,9.3c0,20.9,0.2,41.8,0.4,62.7c0,3.3,0,6.6-1.2,9.6
		c-1.3,3-4.2,5.6-7.5,5.3c-3-0.2-5.4-2.7-6.5-5.4c-1.1-2.8-1.1-5.8-1.1-8.8c0-24.9,0.1-49.8,0.1-74.7c0-2.6,0-5.2,1.1-7.6
		c1.7-3.6,5.5-5.6,9.2-7c21.2-7.9,45.1-2,67.4-6.1c5.2-1,10.5-2.6,13.9-6.6c4.4-5.1,4.4-13.1,1-19
		C232.8,207.1,226.7,203.2,220.2,201.2z"/>
	<text transform="matrix(1 0 0 1 115.7199 187.2098)" class="st4 st5 st6">Portal</text>
	<linearGradient id="SVGID_4_" gradientUnits="userSpaceOnUse" x1="158" y1="183" x2="170" y2="183">
		<stop  offset="0" style="stop-color:#4F0593"/>
		<stop  offset="0.1679" style="stop-color:#6C15B1"/>
		<stop  offset="0.4522" style="stop-color:#9A2EDF"/>
		<stop  offset="0.595" style="stop-color:#AB38F1"/>
		<stop  offset="0.6954" style="stop-color:#AD39ED"/>
		<stop  offset="0.7882" style="stop-color:#B33DE2"/>
		<stop  offset="0.8776" style="stop-color:#BC43D0"/>
		<stop  offset="0.9391" style="stop-color:#C548BE"/>
	</linearGradient>
	<circle class="st7" cx="164" cy="183" r="6"/>
	<linearGradient id="SVGID_5_" gradientUnits="userSpaceOnUse" x1="173" y1="183" x2="185" y2="183">
		<stop  offset="0" style="stop-color:#4F0593"/>
		<stop  offset="0.1679" style="stop-color:#6C15B1"/>
		<stop  offset="0.4522" style="stop-color:#9A2EDF"/>
		<stop  offset="0.595" style="stop-color:#AB38F1"/>
		<stop  offset="0.6954" style="stop-color:#AD39ED"/>
		<stop  offset="0.7882" style="stop-color:#B33DE2"/>
		<stop  offset="0.8776" style="stop-color:#BC43D0"/>
		<stop  offset="0.9391" style="stop-color:#C548BE"/>
	</linearGradient>
	<circle class="st8" cx="179" cy="183" r="6"/>
</g>
<g id="Layer_3">
</g>
</svg>
