<svg xmlns="http://www.w3.org/2000/svg" xmlns:xlink="http://www.w3.org/1999/xlink" viewBox="0 0 264.01 257.57"><defs><style>.cls-1{isolation:isolate;}.cls-2,.cls-4{fill:none;stroke-miterlimit:10;stroke-width:15px;}.cls-2{stroke:url(#linear-gradient);}.cls-3{fill:url(#linear-gradient-2);}.cls-4{stroke:#2a3286;}.cls-5{fill:url(#linear-gradient-3);}.cls-6{fill:#ef3d23;opacity:0.36;}.cls-7{fill:#9e1f63;opacity:0.42;mix-blend-mode:color-burn;}.cls-8{fill:#f8991d;opacity:0.06;}.cls-9{fill:#fff;}.cls-10{opacity:0.25;fill:url(#linear-gradient-4);}</style><linearGradient id="linear-gradient" x1="251.97" y1="283.5" x2="340.97" y2="283.5" gradientUnits="userSpaceOnUse"><stop offset="0" stop-color="#f8e610"/><stop offset="0.14" stop-color="#fbaa20"/><stop offset="0.2" stop-color="#faa41f"/><stop offset="0.34" stop-color="#f8991d"/><stop offset="0.38" stop-color="#ed9121"/><stop offset="0.46" stop-color="#de8725"/><stop offset="0.52" stop-color="#d98327"/><stop offset="0.58" stop-color="#df6e26"/><stop offset="0.66" stop-color="#e65925"/><stop offset="0.75" stop-color="#eb4924"/><stop offset="0.85" stop-color="#ee4023"/><stop offset="1" stop-color="#ef3d23"/></linearGradient><linearGradient id="linear-gradient-2" x1="201.62" y1="379.8" x2="391.32" y2="379.8" gradientUnits="userSpaceOnUse"><stop offset="0" stop-color="#f8e610"/><stop offset="0.44" stop-color="#fbaa20"/><stop offset="0.47" stop-color="#fa9f21"/><stop offset="0.63" stop-color="#f46f24"/><stop offset="0.75" stop-color="#f05125"/><stop offset="0.82" stop-color="#ef4626"/><stop offset="1" stop-color="#ef3d23"/></linearGradient><linearGradient id="linear-gradient-3" x1="171.4" y1="390.99" x2="435.4" y2="390.99" gradientUnits="userSpaceOnUse"><stop offset="0" stop-color="#373a96"/><stop offset="0.46" stop-color="#393a95"/><stop offset="0.62" stop-color="#403893"/><stop offset="0.74" stop-color="#4b3590"/><stop offset="0.84" stop-color="#5c318a"/><stop offset="0.92" stop-color="#722c84"/><stop offset="0.99" stop-color="#8d267b"/><stop offset="1" stop-color="#91257a"/></linearGradient><linearGradient id="linear-gradient-4" x1="112.56" y1="381.27" x2="113.05" y2="381.27" gradientUnits="userSpaceOnUse"><stop offset="0" stop-color="#b35ca4"/><stop offset="0.27" stop-color="#9b59a3"/><stop offset="0.52" stop-color="#8956a3"/><stop offset="0.71" stop-color="#8d56a3"/><stop offset="0.89" stop-color="#9855a2"/><stop offset="1" stop-color="#a355a1"/></linearGradient></defs><g class="cls-1"><g id="Layer_2" data-name="Layer 2"><path class="cls-2" d="M296.47,260.5c-23.68,0-43.29,20.53-44.5,46h89C339.76,281,320.14,260.5,296.47,260.5Z" transform="translate(-171.4 -253)"/><path class="cls-3" d="M224.9,297.52h137s62,46,6,119c0,0-18.85,22.67-46.5,35.5-32.54,15.1-77.2,18.12-116.67-26.34a12.47,12.47,0,0,1-3-9.89L215.4,309S215.4,302,224.9,297.52Z" transform="translate(-171.4 -253)"/><path class="cls-4" d="M188.44,384.29" transform="translate(-171.4 -253)"/><path class="cls-5" d="M188,346.37s-35,80.57,46.76,116.63c51.33,22.65,117.79-6.4,148.08-50.45,15-21.82,22.92-51.74,18-78-4.76-25.48-25.31-49.06-50.11-57.36L334,271.56s43.19-4.4,75.8,33.84c20.57,24.13,29.9,54.5,23.8,86.16-11.75,61-68.39,106.26-127.83,116.79-23.67,4.19-48.32,2.57-70.92-5.82-29.46-10.94-54.24-33.45-60.64-65a132.08,132.08,0,0,1,5.74-73.74A135.51,135.51,0,0,1,188,346.37Z" transform="translate(-171.4 -253)"/><path class="cls-6" d="M332.36,298h29.5s13.45,125.65-40.46,154.05c0,0-23.13,7.61-23.76,8C289.5,464.49,343.22,420.66,332.36,298Z" transform="translate(-171.4 -253)"/><path class="cls-7" d="M360.45,298S446.38,368.17,330,448C330,448,378.68,390.14,360.45,298Z" transform="translate(-171.4 -253)"/><path class="cls-8" d="M202.12,420.94S339.22,323.5,332.36,298c0,0,14.42,100.51-34.72,162C297.64,460,239.74,473.39,202.12,420.94Z" transform="translate(-171.4 -253)"/><circle class="cls-9" cx="86.6" cy="74.5" r="9.5"/><circle class="cls-9" cx="158.6" cy="74.5" r="9.5"/><path class="cls-10" d="M192,456c-22.83-22.87-22.45-64.95-12.09-92.17A135.51,135.51,0,0,1,188,346.37s-35,80.57,46.76,116.63c51.33,22.65,117.79-6.4,148.08-50.45,15-21.82,22.92-51.74,18-78-4.76-25.48-25.31-49.06-50.11-57.36L334,271.56s43.19-4.4,75.8,33.84c21.1,24.74,16.44,61.53,9.11,90.71-7.49,29.82-28.68,54.49-54.09,71-18.82,12.22-40.52,20.52-62.86,23a163.22,163.22,0,0,1-61.17-4.52c-19.69-5.42-34.4-15.19-48.75-29.56" transform="translate(-171.4 -253)"/></g></g></svg>